<svg id="Layer_1" data-name="Layer 1" xmlns="http://www.w3.org/2000/svg" viewBox="0 0 95.25 21.5"><defs><style>.cls-1{fill:#231f20;}.cls-2{fill:#63b1e2;}</style></defs><title>ChairshareLogo</title><path class="cls-1" d="M75.58,11v8.81H73.24L73,19.18a4.18,4.18,0,0,1-2.66.93A4.49,4.49,0,0,1,65.7,15.4a4.47,4.47,0,0,1,4.62-4.67,4.2,4.2,0,0,1,2.69.95l.31-.68Zm-2.89,4.41a2,2,0,1,0-2,2A1.93,1.93,0,0,0,72.69,15.41Z"/><path class="cls-1" d="M83.23,11v2.77H82.05c-1.08,0-1.52.47-1.52,1.6v4.48h-3V11h2L80,12a2.93,2.93,0,0,1,2.42-1Z"/><path class="cls-1" d="M93.24,16.13H86.7a1.72,1.72,0,0,0,1.8,1.54,1.78,1.78,0,0,0,1.59-.83h3a4.83,4.83,0,0,1-9.4-1.43,4.8,4.8,0,0,1,9.59-.08A5.49,5.49,0,0,1,93.24,16.13Zm-6.49-1.68h3.56A1.76,1.76,0,0,0,88.5,13.1,1.71,1.71,0,0,0,86.75,14.45Z"/><path class="cls-1" d="M7.12,20a4.63,4.63,0,0,1-4.87-4.7,4.6,4.6,0,0,1,4.88-4.67,4.49,4.49,0,0,1,4.66,3.9h-3a1.78,1.78,0,0,0-1.71-1.18,1.82,1.82,0,0,0-1.83,2,1.84,1.84,0,0,0,1.83,2A1.78,1.78,0,0,0,8.84,16h3a4.57,4.57,0,0,1-4.7,4Z"/><path class="cls-2" d="M21.83,14.4v5.3h-3V14.75c0-1-.35-1.53-1.15-1.53s-1.48.65-1.48,1.78v4.7h-3V1.94h3v8.67h5.66Z"/><path class="cls-2" d="M55.7,10.61h5.67V2.06h3V19.82h-3v-4.7c0-1.13-.57-1.79-1.49-1.79s-1.15.52-1.15,1.54v5h-3V10.61Z"/><path class="cls-1" d="M33,10.89v8.8H30.68l-.26-.62a4.18,4.18,0,0,1-2.66.92,4.48,4.48,0,0,1-4.61-4.7,4.46,4.46,0,0,1,4.61-4.67,4.16,4.16,0,0,1,2.69,1l.31-.68ZM30.14,15.3a2,2,0,1,0-2,2A1.93,1.93,0,0,0,30.14,15.3Z"/><path class="cls-1" d="M34.94,10.9h3v8.8h-3Z"/><path class="cls-1" d="M45.61,10.86v2.77H44.44c-1.08,0-1.53.47-1.53,1.59V19.7h-3V10.9h2l.48,1a2.94,2.94,0,0,1,2.42-1Z"/><path class="cls-1" d="M46.24,16.81h2.92a.91.91,0,0,0,1,.94c.44,0,.86-.22.86-.68s-.67-.65-1.51-.79c-1.37-.22-3.18-.63-3.18-2.77,0-1.76,1.51-2.9,3.76-2.9s3.7,1.19,3.73,3H51c0-.57-.38-.83-.93-.83s-.81.24-.81.65.67.62,1.51.77c1.39.24,3.24.53,3.24,2.76,0,1.84-1.55,3-3.89,3S46.27,18.72,46.24,16.81Z"/><rect class="cls-2" x="23.02" y="6.43" width="31.19" height="1.91"/></svg>